<?xml version="1.0" encoding="UTF-8" standalone="no"?>
<!-- Created with Inkscape (http://www.inkscape.org/) -->

<svg
   xmlns:dc="http://purl.org/dc/elements/1.1/"
   xmlns:cc="http://creativecommons.org/ns#"
   xmlns:rdf="http://www.w3.org/1999/02/22-rdf-syntax-ns#"
   xmlns:svg="http://www.w3.org/2000/svg"
   xmlns="http://www.w3.org/2000/svg"
   xmlns:sodipodi="http://sodipodi.sourceforge.net/DTD/sodipodi-0.dtd"
   xmlns:inkscape="http://www.inkscape.org/namespaces/inkscape"
   width="160"
   height="80"
   id="svg4046"
   version="1.1"
   inkscape:version="0.48.4 r9939"
   sodipodi:docname="glua_medium_bw.svg">
  <defs
     id="defs4048" />
  <sodipodi:namedview
     id="base"
     pagecolor="#ffffff"
     bordercolor="#666666"
     borderopacity="1.0"
     inkscape:pageopacity="0.0"
     inkscape:pageshadow="2"
     inkscape:zoom="5.59375"
     inkscape:cx="80"
     inkscape:cy="40"
     inkscape:document-units="px"
     inkscape:current-layer="layer1"
     showgrid="false"
     inkscape:window-width="1280"
     inkscape:window-height="743"
     inkscape:window-x="0"
     inkscape:window-y="31"
     inkscape:window-maximized="1" />
  <metadata
     id="metadata4051">
    <rdf:RDF>
      <cc:Work
         rdf:about="">
        <dc:format>image/svg+xml</dc:format>
        <dc:type
           rdf:resource="http://purl.org/dc/dcmitype/StillImage" />
        <dc:title></dc:title>
      </cc:Work>
    </rdf:RDF>
  </metadata>
  <g
     inkscape:label="Layer 1"
     inkscape:groupmode="layer"
     id="layer1"
     transform="translate(0,-972.36218)">
    <g
       transform="matrix(1.25,0,0,-1.25,91.6296,1019.9028)"
       id="g4576">
      <path
         inkscape:connector-curvature="0"
         id="path166"
         style="fill:#ff921e;fill-opacity:1;fill-rule:nonzero;stroke:none"
         d="m 0,0 c 0,5.24 -1.803,9.374 -1.803,9.374 0,0 -0.261,1.356 -0.327,1.919 -0.095,0.79 -0.558,1.718 -0.558,1.718 l -1.166,2.769 c 0,0 -0.098,0.067 0.096,0.182 2.413,1.391 4.717,0.076 4.975,1.638 0.179,1.055 -3.228,3.021 -3.523,3.364 -0.978,1.141 -1.587,1.167 -1.587,1.167 0,0 0.21,0.668 0.142,1.678 -0.091,1.31 -0.643,1.847 -0.643,1.817 0,-0.099 0.307,0.107 0.265,0.202 -0.125,0.279 -0.287,0.235 -0.345,0.448 -0.389,1.456 -1.06,3.057 -2.214,4.357 -0.563,0.632 -3.06,2.393 -7.285,1.527 -4.285,-0.88 -5.487,-5.485 -5.556,-6.213 -0.316,-3.384 0.238,-3.852 -0.285,-5.47 -0.496,-1.522 -1.1,-4.591 -3.58,-7.312 -6.738,-7.397 -3.343,-23.618 -3.343,-23.618 0,0 -1.446,-2.698 -0.27,-2.724 0.997,-0.022 1.344,0.093 1.663,0.063 9.4,-0.86 9.185,-1.101 12.397,-0.865 2.292,0.166 4.696,0.617 6.672,1.508 2.462,1.112 3.684,2.093 4.606,4.211 C 0.476,-3.337 0,-1.589 0,0"
         transform="translate(48.086896,2.095704)" />
      <path
         inkscape:connector-curvature="0"
         id="path170"
         style="fill:#ff921e;fill-opacity:1;fill-rule:nonzero;stroke:none"
         d="m 0,0 c -0.458,-0.642 -10.781,4.132 -14.444,3.188 -2.042,-0.525 -11.079,-6.427 -6.777,-9.725 0.226,-0.171 2.448,-0.832 9.615,-1.078 2.655,-0.093 2.903,0.071 7.951,0.861 1.004,0.158 6.514,6.356 7.069,9.85 L 0,0 z"
         transform="translate(44.512696,-4.336896)" />
      <path
         inkscape:connector-curvature="0"
         id="path174"
         style="fill:#ff921e;fill-opacity:1;fill-rule:nonzero;stroke:none"
         d="m 0,0 c 0.597,-0.751 -0.65,-0.785 -0.506,-1.231 0.227,-0.72 1.61,-0.845 1.262,-1.623 -0.68,-1.525 -2.676,-0.143 -3.105,-0.89 -0.284,-0.489 -0.037,-1.722 -0.755,-2.149 -0.088,-0.052 -1.068,-0.905 -4.54,2.858 -0.823,0.893 -5.086,2.323 -3.934,4.457 0.322,0.599 1.034,0.873 1.887,0.783 C -7.799,2.004 -7.188,1.551 -4.906,0.853 -4.106,0.607 -0.798,1.001 0,0"
         transform="translate(48.6562,-9.197296)" />
      <path
         inkscape:connector-curvature="0"
         id="path178"
         style="fill:#ff921e;fill-opacity:1;fill-rule:nonzero;stroke:none"
         d="m 0,0 c 0.674,-0.342 -0.21,-0.772 0.041,-1.048 0.397,-0.438 1.428,-0.076 1.435,-0.747 0.01,-1.311 -1.869,-0.976 -1.934,-1.652 -0.04,-0.445 0.539,-1.243 0.164,-1.783 -0.045,-0.069 -0.465,-0.999 -4.181,0.559 -0.881,0.367 -4.399,-0.003 -4.275,1.9 0.035,0.533 0.454,0.964 1.094,1.178 1.42,0.477 2.004,0.351 3.867,0.599 C -3.137,-0.908 -0.898,0.457 0,0"
         transform="translate(49.164,-1.828096)" />
      <path
         inkscape:connector-curvature="0"
         id="path182"
         style="fill:#000000;fill-opacity:1;fill-rule:nonzero;stroke:none"
         d="m 0,0 -4.393,0 c -1.223,0 -2.272,-0.417 -3.148,-1.247 -0.875,-0.83 -1.312,-1.858 -1.312,-3.082 l 0,-17.638 c 0,-1.227 0.437,-2.252 1.312,-3.084 0.876,-0.83 1.925,-1.245 3.148,-1.245 L 0,-26.296 0,0 z m 5.248,3.936 0,-36.593 c 0,-2.447 -0.667,-4.394 -2,-5.836 -1.335,-1.444 -3.203,-2.164 -5.606,-2.164 l -7.739,0 0,3.934 6.753,0 c 1.007,0 1.804,0.34 2.393,1.016 0.592,0.679 0.887,1.541 0.887,2.593 l 0,2.883 -5.442,0 c -2.405,0 -4.438,0.788 -6.099,2.362 -1.663,1.573 -2.493,3.54 -2.493,5.902 l 0,17.638 c 0,2.362 0.841,4.329 2.524,5.902 1.683,1.574 3.727,2.363 6.133,2.363 l 10.689,0 z"
         transform="translate(-55.1494,18.2314)" />
      <path
         inkscape:connector-curvature="0"
         id="path184"
         style="fill:#000000;fill-opacity:1;fill-rule:nonzero;stroke:none"
         d="m 94.495,356.954 5.246,0 0,-45.904 -5.246,0 0,45.904 z"
         transform="translate(-137.1182,-322.9844)" />
      <path
         inkscape:connector-curvature="0"
         id="path188"
         style="fill:#000000;fill-opacity:1;fill-rule:nonzero;stroke:none"
         d="M 0,0 -3.737,0 -4.721,2.229 C -5.379,2.057 -6.253,1.76 -7.345,1.345 -8.438,0.929 -9.356,0.612 -10.1,0.393 c -0.743,-0.218 -1.31,-0.372 -1.703,-0.458 -1.268,-0.262 -2.253,-0.393 -2.952,-0.393 -1.574,0 -2.743,0.545 -3.507,1.639 -0.766,1.091 -1.149,2.512 -1.149,4.263 l 0,28.658 5.247,0 0,-26.954 c 0,-1.53 0.13,-2.481 0.393,-2.852 0.262,-0.373 0.589,-0.558 0.984,-0.558 0.392,0 2.906,0.657 7.542,1.968 l 0,28.396 5.245,0 L 0,0 z"
         transform="translate(-10.8194,-11.9346)" />
      <path
         inkscape:connector-curvature="0"
         id="path192"
         style="fill:#000000;fill-opacity:1;fill-rule:nonzero;stroke:none"
         d="m 0,0 0,-3.671 c 0,-1.18 0.437,-2.187 1.312,-3.017 0.875,-0.831 1.923,-1.246 3.147,-1.246 l 4.395,0 0,15.41 L 3.081,5.313 C 1.944,4.873 1.146,4.284 0.688,3.542 0.23,2.798 0,1.619 0,0 m -1.967,22.167 7.869,0 c 2.403,0 4.317,-0.711 5.737,-2.132 1.422,-1.421 2.132,-3.356 2.132,-5.804 l 0,-26.166 -9.77,0 c -2.405,0 -4.449,0.854 -6.133,2.558 -1.682,1.706 -2.523,3.847 -2.523,6.427 l 0,3.41 c 0,2.055 0.513,3.78 1.539,5.181 1.027,1.398 2.305,2.383 3.838,2.951 l 8.132,3.016 0,3.082 c 0,1.049 -0.32,1.912 -0.954,2.59 -0.631,0.679 -1.452,1.017 -2.457,1.017 l -7.41,0 0,3.87 z" />
    </g>
  </g>
</svg>
