<svg xmlns="http://www.w3.org/2000/svg" id="Camada_1" data-name="Camada 1" viewBox="0 0 400 400">
    <path class="cls-1" style="fill:#faa41a;" d="M358.72 20.31 61.35 98.86l-.16 291.6 297.37-78.55.16-291.6z"/>
    <path style="fill:#14181a;stroke:#faa41a;stroke-miterlimit:10;stroke-width:8px" d="M338.81 9.54 41.45 88.09l-.17 291.6 297.36-78.55.17-291.6z"/>
    <path class="cls-3" style="fill:#fff;" d="m101.65 201.87.07-70.15c0-3.47 1-5 4.4-5.87l43.88-11.7c3.35-.89 4.5 0 4.5 3.51v10.08c0 3.59-1.16 5-4.51 5.91L122.33 141v10.1l22.1-5.89c3.35-.89 4.5 0 4.5 3.62v10c0 3.59-1.16 5.13-4.51 6l-22.1 5.89v10.76l28.59-7.62c3.24-.87 4.4 0 4.39 3.53v10.2c0 3.47-1.16 5-4.4 5.88L106 205.4c-3.31.89-4.36-.06-4.35-3.53ZM163.64 185.35l.07-70.15c0-3.47 1.06-5 4.41-5.87l12.35-3.3c2.31-.61 3.46-.24 4.4 1.07L202 131.32c4.6 6.4 5.54 10.51 8.78 18.05l.83-.22c-3.34-10.54-4.69-15.66-4.68-27v-18.49c0-3.47 1-5 4.4-5.88L222 95c3.25-.87 4.4.06 4.4 3.53l-.08 70.14c0 3.48-1.15 5-4.4 5.88l-11.83 3.15c-2.2.59-3.35.22-4.29-1.09l-16.1-22.37c-4.6-6.51-6.38-11.3-9.19-20.52l-.84.23c2.19 9.94 3.44 15.43 3.43 28v18.27c0 3.47-1.16 5-4.51 5.9L168 188.88c-3.32.89-4.36-.06-4.36-3.53ZM106.13 299.84l.08-70.14c0-3.47 1.05-5 4.4-5.88l43.87-11.69c3.36-.89 4.51 0 4.5 3.51v10.08c0 3.59-1.16 5-4.51 5.91L126.82 239v10.09l22.09-5.89c3.35-.89 4.5 0 4.5 3.62v10c0 3.59-1.16 5.12-4.51 6l-22.09 5.88v10.76l28.58-7.62c3.25-.86 4.4-.05 4.4 3.54v10.19c0 3.48-1.16 5-4.41 5.88l-44.81 11.95c-3.39.87-4.44-.09-4.44-3.56ZM189.17 277.94l.08-70.59c0-3.37 1.05-4.76 4.19-5.6l12.25-3.27c3.14-.83 4.19 0 4.18 3.37l-.07 70.59c0 3.36-1.05 4.76-4.19 5.6l-12.25 3.26c-3.15.84-4.19 0-4.19-3.36Z"/>
    <path class="cls-3" style="fill:#fff;" d="m228.44 211-55.66 14.83c-2.65.71-3.53 0-3.53-2.84V212c0-2.83.89-4 3.54-4.72l55.65-14.83c2.65-.71 3.54 0 3.53 2.84v11.06c.03 2.8-.89 3.98-3.53 4.65ZM228.13 272l-55.65 14.83c-2.66.7-3.54 0-3.53-2.84V273c0-2.84.88-4 3.53-4.72l55.66-14.84c2.65-.7 3.53 0 3.53 2.84v11.06c-.01 2.81-.89 3.99-3.54 4.66Z"/>
    <path class="cls-1" style="fill:#faa41a;" d="m301.44 253.29-55.66 14.83c-2.65.71-3.53 0-3.53-2.84v-11.06c0-2.83.88-4 3.53-4.72l55.66-14.83c2.65-.71 3.53 0 3.53 2.84v11.06c.03 2.84-.88 4.02-3.53 4.72Z"/>
</svg>
