<?xml version="1.0" encoding="utf-8"?>
<!-- Generator: Adobe Illustrator 16.0.0, SVG Export Plug-In . SVG Version: 6.00 Build 0)  -->
<!DOCTYPE svg PUBLIC "-//W3C//DTD SVG 1.1//EN" "http://www.w3.org/Graphics/SVG/1.1/DTD/svg11.dtd">
<svg version="1.1" id="Layer_1" xmlns="http://www.w3.org/2000/svg" xmlns:xlink="http://www.w3.org/1999/xlink" x="0px" y="0px"
	 width="716.372px" height="286.086px" viewBox="0 0 716.372 286.086" enable-background="new 0 0 716.372 286.086"
	 xml:space="preserve">
<g id="g4306">
	<path id="path3411" fill="#000000" d="M78.875,150.468v7.48c0.123,6.482-3.006,12.596-8.336,16.316
		c-5.594,3.771-12.23,5.717-18.976,5.544c-4.037,0.143-8.011-0.825-11.527-2.823c-3.435-1.987-5.544-5.646-5.574-9.611
		c0-4.769,2.588-9.131,6.767-11.414c4.525-2.486,9.508-4.035,14.635-4.576c4.688-0.602,9.396-0.876,14.115-0.815L78.875,150.468z
		 M78.875,201.537h33.051v-59.243c0.377-11.068-1.141-22.116-4.494-32.664c-2.772-8.541-8.551-15.776-16.276-20.362
		c-7.786-4.638-18.599-6.961-32.439-6.961c-9.478-0.051-18.875,1.539-27.813,4.678C22.18,89.96,14.18,94.73,7.392,100.988
		l19.088,19.496c3.659-4.229,8.123-7.694,13.097-10.232c5.035-2.457,10.579-3.751,16.184-3.741
		c5.891-0.102,11.639,1.916,16.205,5.657c4.464,3.801,7.012,9.406,6.909,15.267c-7.664,0-15.98,0-24.949,0.755
		c-8.723,0.54-17.355,2.109-25.722,4.637c-7.664,2.222-14.615,6.44-20.099,12.239c-5.523,6.513-8.397,14.859-8.082,23.39
		c-0.295,10.415,4.352,20.353,12.535,26.794c8.348,6.207,18.519,9.427,28.894,9.162c7.205,0.103,14.349-1.295,20.995-4.066
		c6.552-2.762,12.107-7.43,15.949-13.402h0.479V201.537z"/>
	<path id="path3415" fill="#000000" d="M162.721,130.085c0.458-5.779,2.986-11.231,7.145-15.298
		c4.962-4.586,11.536-7.032,18.303-6.808c5.982-0.071,11.761,2.293,15.98,6.563c4.026,4.159,6.217,9.764,6.054,15.543H162.721z
		 M215.482,162.921c-2.833,4.118-6.452,7.623-10.66,10.324c-4.525,2.701-9.703,4.087-14.982,4.016
		c-6.441,0.112-12.719-2.049-17.693-6.146c-4.912-4.301-8.245-10.151-9.427-16.582h83.458v-11.23
		c-0.204-18.833-5.116-33.673-14.748-44.537c-9.63-10.845-22.941-16.398-39.899-16.653c-11.374-0.143-22.605,2.416-32.777,7.491
		c-9.529,4.8-17.549,12.118-23.175,21.178c-11.731,19.986-11.731,44.762,0,64.747c5.625,9.069,13.646,16.388,23.175,21.188
		c10.171,5.064,21.403,7.623,32.777,7.479c9.406-0.01,18.711-2.068,27.241-6.022c8.53-3.842,16.032-9.672,21.861-16.989
		L215.482,162.921z"/>
	<path id="path3419" fill="#000000" d="M590.979,82.113h-36.793v59.202c0.459,7.195-0.824,14.401-3.75,20.963
		c-2.832,6.004-8.908,9.102-18.182,9.397c-4.963,0.347-9.846-1.487-13.32-5.045c-2.783-3.465-4.504-7.674-4.982-12.098
		c-0.592-4.708-0.857-9.468-0.744-14.227V82.113h-36.639v65.572c-0.266,9.683,0.795,19.354,3.139,28.751
		c1.936,7.929,6.471,14.991,12.912,20.006c6.41,4.912,15.686,7.491,27.914,7.491c7.91,0.132,15.695-1.967,22.463-6.065
		c5.238-3.159,9.539-7.653,12.494-13.014h0.49v16.123h35.18V82.113H590.979z"/>
	<path id="path3423" fill="#000000" d="M683.262,150.468v7.48c0.111,6.482-3.037,12.596-8.377,16.316
		c-5.596,3.771-12.23,5.717-18.977,5.544c-4.047,0.021-8.021-1.04-11.486-3.129c-3.414-1.997-5.523-5.646-5.545-9.6
		c-0.041-4.761,2.549-9.163,6.738-11.425c4.533-2.487,9.527-4.036,14.664-4.566c4.688-0.611,9.398-0.877,14.115-0.827
		L683.262,150.468z M683.262,201.537h33.051v-59.243c0.389-11.13-1.143-22.228-4.484-32.848c-2.771-8.55-8.563-15.787-16.287-20.363
		c-7.754-4.646-18.568-6.971-32.447-6.971c-9.479-0.031-18.875,1.549-27.803,4.688c-8.715,2.956-16.715,7.736-23.471,13.993
		l19.17,19.69c3.648-4.229,8.092-7.715,13.086-10.232c5.014-2.467,10.537-3.751,16.133-3.741c5.91-0.102,11.648,1.885,16.203,5.657
		c4.424,3.812,6.941,9.386,6.85,15.236c-7.664,0-16.012,0-24.959,0.744c-8.664,0.581-17.223,2.15-25.52,4.678
		c-7.674,2.222-14.613,6.44-20.098,12.239c-5.564,6.493-8.459,14.85-8.092,23.39c-0.307,10.415,4.342,20.362,12.535,26.794
		c8.336,6.207,18.508,9.427,28.902,9.162c7.195,0.103,14.35-1.295,20.996-4.066c6.543-2.762,12.088-7.43,15.939-13.402h0.49v14.595
		H683.262z"/>
	<path id="path3427" fill="#000000" d="M294.15,203.983h44.915V39.716h58.152V0H236.069v39.716h58.081V203.983z"/>
	<path id="path3431" fill="#000000" d="M426.264,82.113h-44.904v164.226h-58.173v39.747h161.24v-39.747h-58.162V82.113z"/>
</g>
</svg>
